<svg xmlns="http://www.w3.org/2000/svg" width="701.333" height="677.333" version="1.0" viewBox="0 0 526 508"><path d="M403.4 77.7c-1.5 2.7-4.1 7.3-5.8 10.2-6.9 12.1-21.5 24.9-35.8 31.4-3.2 1.4-5.8 3.2-5.8 4 0 .7 3.8 3.2 8.4 5.6 16.1 8 27.3 18.5 34.7 32.4 1.7 3.4 4.1 7.5 5.2 9 1.8 2.6 2 2.7 3.7 1.2.9-.8 3.7-5.3 6.1-9.8 7.2-13.3 19.4-25.1 33-31.8 6.6-3.2 9.9-5.6 9.9-7.1 0-.4-3.7-2.6-8.2-4.9-15.8-7.7-27.9-19.7-36.3-36.1-2.5-4.8-5-8.8-5.5-8.8s-2.1 2.1-3.6 4.7m-141.6 4.6c-1.4 2.3-5.7 10.5-9.3 18.2-15.3 31.8-30 62.6-43 89.5-7.6 15.7-16.6 34.3-20 41.5-3.5 7.1-10.3 21.3-15.2 31.5l-9 18.6-13.9 1.8c-28.1 3.6-52.8 9.8-64.9 16.4-11.4 6.2-13.8 12-7.7 18.5 4 4.2 20.8 12.4 29.3 14.2 31 6.8 44.4 9 73.9 12.2 14.1 1.5 26 1.8 81.5 1.8 67.4 0 81.6-.6 110.5-4.6 63.5-8.7 94.5-23.4 79.2-37.6-7.7-7.1-30.8-14.2-63-19.3-10.8-1.7-20.7-3.3-22-3.6-2.5-.5-4.8-4.8-28.4-54.4-7.7-16.2-21.4-44.8-30.3-63.5s-20.9-43.9-26.6-56C271.1 82.3 268.7 78 266.2 78c-.9 0-2.9 1.9-4.4 4.3M106 173.2c-4.3 8.1-15.5 19.3-23.8 23.6-3.5 1.9-6.1 3.9-5.9 4.5s3.6 3.1 7.6 5.5c9.3 5.7 16.4 13 22.5 23.3 5.4 9 4.8 9 9.8-.6 3.9-7.6 14.3-17.9 23.2-23 3.8-2.2 7.1-4.5 7.3-5.1s-2.7-2.8-6.5-4.8c-8.8-4.6-16-11-21.1-18.9-8.6-13.2-8.5-13.2-13.1-4.5M160.5 361c-.3.5.3 4.9 1.5 9.7 5.9 25.4 13.9 40.3 29.9 56.4 34.5 34.4 81.2 41.4 124.4 18.6 13.7-7.3 28-20.4 37.9-35 10.4-15.3 10.2-23.2-.7-30.7-13.6-9.4-30.2-12.2-81.6-13.9-46.9-1.6-75.7-3.1-92.4-4.7-18-1.7-18.2-1.7-19-.4m267.6 17.6c-1.7 4.6-10.5 13.4-17 16.9-2.8 1.6-5.1 3.2-5.1 3.6s2.4 2 5.3 3.7c6 3.4 14.9 12.4 17.4 17.6.9 2 2.3 3.6 3 3.6s2.4-2.1 3.7-4.8c2.9-5.6 9.3-12 16-15.9 6-3.5 6.6-4.9 2.9-6.5-5.7-2.4-12.5-8.5-17-15.1-2.6-3.7-5.4-6.7-6.3-6.7s-2.1 1.5-2.9 3.6"/></svg>